<?xml version="1.0" encoding="iso-8859-1"?>
<!-- Generator: Adobe Illustrator 19.0.0, SVG Export Plug-In . SVG Version: 6.00 Build 0)  -->
<svg version="1.1" id="Layer_1" xmlns="http://www.w3.org/2000/svg" xmlns:xlink="http://www.w3.org/1999/xlink" x="0px" y="0px"
	 viewBox="0 0 512 512" style="enable-background:new 0 0 512 512;" xml:space="preserve">
<circle style="fill:#FF7F4F;" cx="256" cy="256" r="256"/>
<path style="fill:#D35933;" d="M503.408,321.95L326.615,145.156l-20.035,37.076l-66.551-66.551l-37.755,43.494l12.06,12.06
	l-46.325,15.725l88.302,88.302l-43.144,79.839l42.961,42.961l-0.126,9.904l88.369,88.369
	C421.985,467.785,481.935,402.71,503.408,321.95z"/>
<polygon style="fill:#386895;" points="210.285,377.489 256,407.966 301.715,377.489 301.715,164.155 210.285,164.155 "/>
<polygon style="fill:#273B7A;" points="255.426,164.155 255.426,407.583 256,407.966 301.715,377.489 301.715,164.155 "/>
<path style="fill:#4A7EA8;" d="M271.972,115.681v38.964h-31.944v-38.964c-33.78,5.027-61.569,29.682-73.531,58.658
	c-3.534,8.561,2.719,17.975,11.979,17.975h155.048c9.261,0,15.513-9.416,11.979-17.975
	C333.541,145.361,305.752,120.706,271.972,115.681z"/>
<path style="fill:#386895;" d="M345.503,174.337c-11.962-28.975-39.753-53.631-73.531-58.658v38.965h-16.546v37.669h78.098
	C342.785,192.314,349.037,182.898,345.503,174.337z"/>
<g>
	<polygon style="fill:#273B7A;" points="301.715,263.646 210.285,307.821 210.285,320.126 301.715,275.952 	"/>
	<polygon style="fill:#273B7A;" points="301.715,229.069 210.285,273.244 210.285,285.549 301.715,241.376 	"/>
	<polygon style="fill:#273B7A;" points="210.285,354.702 301.715,310.529 301.715,298.222 210.285,342.395 	"/>
	<polygon style="fill:#273B7A;" points="210.285,377.489 220.539,384.324 301.715,345.104 301.715,332.798 210.285,376.972 	"/>
</g>
<g>
	<polygon style="fill:#121149;" points="301.715,263.646 255.426,286.01 255.426,298.317 301.715,275.952 	"/>
	<polygon style="fill:#121149;" points="301.715,229.069 255.426,251.433 255.426,263.74 301.715,241.376 	"/>
	<polygon style="fill:#121149;" points="301.715,298.222 255.426,320.586 255.426,332.893 301.715,310.529 	"/>
	<polygon style="fill:#121149;" points="301.715,332.798 255.426,355.163 255.426,367.469 301.715,345.105 	"/>
</g>
<g>
</g>
<g>
</g>
<g>
</g>
<g>
</g>
<g>
</g>
<g>
</g>
<g>
</g>
<g>
</g>
<g>
</g>
<g>
</g>
<g>
</g>
<g>
</g>
<g>
</g>
<g>
</g>
<g>
</g>
</svg>
